<svg xmlns="http://www.w3.org/2000/svg" viewBox="0 0 698 164"><path fill="#004de8" d="M66.9 14.8H22.8v88.3h44.1V58.9H111V14.8z"/><path fill="#002339" d="M111 147.2h44.1V58.9H111v44.2H66.9v44.1z"/><path d="M177.5 32.9c4.3-4.2 9.4-6.4 15.3-6.4s11 2.1 15.3 6.4c4.3 4.2 6.4 9.3 6.4 15.3 0 6.1-2.1 11.3-6.3 15.4s-9.4 6.2-15.4 6.2c-6.1 0-11.2-2.1-15.4-6.2s-6.3-9.3-6.3-15.4c-.1-6 2.1-11.1 6.4-15.3zm3.6 27.1c3.3 3.2 7.2 4.9 11.7 4.9s8.4-1.6 11.7-4.9c3.3-3.2 4.9-7.2 4.9-11.9s-1.6-8.6-4.7-11.9c-3.1-3.3-7.1-4.9-11.9-4.9s-8.7 1.6-11.9 4.9c-3.1 3.3-4.7 7.2-4.7 11.9s1.6 8.7 4.9 11.9zm37.9 8.9V25.4L250.1 58V27.4h5.2v43.2L224.2 38v30.9H219zm48.8-41.5v36.7h12.6v4.7h-17.8V27.4h5.2zm21.1 0v41.5h-5.2V27.4h5.2zm7.2 41.5V25.4L327.2 58V27.4h5.2v43.2L301.3 38v30.9h-5.2zm43.7 0V27.4h22.3v4.7H345v11.6h16.6v4.7H345v15.7h17.1v4.7l-22.3.1z" class="st1"/><path d="M173.5 134.9V93.4h5.1c2.1 0 4 .2 5.7.5s3.3.9 4.8 1.7c1.5.8 2.6 2 3.5 3.5s1.2 3.5 1.2 5.7c0 1.6-.4 3.1-1.2 4.6s-1.9 2.6-3.2 3.2v.1c2.4.4 4.4 1.7 5.9 3.7 1.6 2 2.4 4.3 2.4 6.8 0 3.9-1.4 6.8-4.2 8.7-2.8 1.9-6.2 2.9-10.2 2.9l-9.8.1zm5.2-36.9v13.8h1.3c2.9 0 5.1-.5 6.6-1.4s2.3-2.8 2.3-5.5-.8-4.5-2.3-5.4-3.7-1.4-6.5-1.4l-1.4-.1zm0 17.9v14.4h4c6.5 0 9.8-2.4 9.8-7.3 0-1.4-.3-2.6-1-3.5-.6-1-1.5-1.7-2.6-2.2s-2.2-.8-3.4-1c-1.1-.2-2.3-.3-3.6-.3l-3.2-.1zm49.6 8.6h-19l-4.7 10.4H199l19.8-43.2 19.8 43.2H233l-4.7-10.4zm-2.1-4.8l-7.4-16.8-7.4 16.8h14.8zm15.4 15.2V91.4l31.1 32.6V93.4h5.2v43.2L246.7 104v30.9h-5.1zm48.8-23.5l17.6-18h6.8L296.1 112l19 22.8h-7l-15.6-19.3-2.1 2v17.3h-5.2V93.4h5.2v18zm27.8 23.5V93.4h22.3v4.7h-17.1v11.6H340v4.7h-16.6v15.7h17.1v4.7l-22.3.1zm28.2 0V91.4l31.1 32.6V93.4h5.2v43.2L351.6 104v30.9h-5.2zm70.7-36.8v36.7h-5.2V98.1h-9.8v-4.7H427v4.7h-9.9zm13.9 36.8V93.4h22.3v4.7h-17.1v11.6h16.6v4.7h-16.6v15.7h17.1v4.7l-22.3.1zm51.2-36.1l-4.1 2.5c-1.5-2.6-3.8-3.9-6.7-3.9-1.8 0-3.4.5-4.8 1.6s-2.1 2.5-2.1 4.2c0 2.5 1.9 4.5 5.8 5.9l3 1.2c3.3 1.3 5.8 2.9 7.6 4.8 1.8 1.9 2.7 4.5 2.7 7.7 0 3.7-1.3 6.8-3.8 9.3-2.5 2.4-5.7 3.7-9.4 3.7-3.3 0-6.2-1.1-8.6-3.3s-3.8-5-4.2-8.3l5.2-1.1c0 2.2.7 4.1 2.3 5.6 1.6 1.5 3.5 2.3 5.7 2.3s4-.8 5.5-2.4c1.4-1.6 2.2-3.5 2.2-5.7 0-2-.6-3.6-1.9-4.8-1.3-1.2-3-2.2-5.3-3.1l-2.9-1.2c-2.8-1.2-5-2.6-6.6-4.2s-2.4-3.7-2.4-6.3c0-3.2 1.2-5.8 3.6-7.8s5.3-2.9 8.6-2.9c4.7-.1 8.3 2 10.6 6.2zm18.2-.7v36.7h-5.2V98.1h-9.8v-4.7h24.9v4.7h-9.9zm36.4.7l-4.1 2.5c-1.5-2.6-3.8-3.9-6.7-3.9-1.8 0-3.4.5-4.8 1.6s-2.1 2.5-2.1 4.2c0 2.5 1.9 4.5 5.8 5.9l3 1.2c3.3 1.3 5.8 2.9 7.6 4.8s2.7 4.5 2.7 7.7c0 3.7-1.3 6.8-3.8 9.3-2.5 2.4-5.7 3.7-9.4 3.7-3.3 0-6.2-1.1-8.6-3.3-2.4-2.2-3.8-5-4.2-8.3l5.2-1.1c0 2.2.7 4.1 2.3 5.6s3.5 2.3 5.7 2.3 4-.8 5.5-2.4c1.4-1.6 2.2-3.5 2.2-5.7 0-2-.6-3.6-1.9-4.8-1.3-1.2-3-2.2-5.3-3.1l-2.9-1.2c-2.8-1.2-5-2.6-6.6-4.2s-2.4-3.7-2.4-6.3c0-3.2 1.2-5.8 3.6-7.8 2.4-2 5.3-2.9 8.6-2.9 4.7-.1 8.3 2 10.6 6.2zm12-5.4v41.5h-5.2V93.4h5.2zm7.8 41.5V93.4h22.3v4.7h-17.1v11.6h16.6v4.7h-16.6v15.7h17.1v4.7l-22.3.1zm50-20.9H623v1.6c0 5.8-1.8 10.6-5.5 14.4s-8.4 5.7-14.1 5.7c-5.8 0-10.7-2.1-14.8-6.4-4.1-4.3-6.2-9.3-6.2-15.1 0-6 2.1-11.1 6.3-15.3 4.2-4.3 9.3-6.4 15.2-6.4 3.3 0 6.4.7 9.4 2.1s5.5 3.4 7.5 5.9l-3.6 3.5c-1.5-2.1-3.4-3.7-5.8-4.9s-4.8-1.8-7.3-1.8c-4.6 0-8.5 1.6-11.7 4.9s-4.8 7.2-4.8 11.9c0 4.4 1.6 8.4 4.8 11.8s7 5.1 11.4 5.1c3.3 0 6.4-1.2 9.2-3.7s4.3-5.3 4.4-8.6h-10.7l-.1-4.7zm21.5 20.9V93.4h22.3v4.7h-17.1v11.6h16.6v4.7h-16.6v15.7h17.1v4.7l-22.3.1zm41.4-18.1l13.1 18h-6.3l-12.2-17.5H662v17.5h-5.2V93.4h6.3c1.6 0 2.8 0 3.8.1s2.1.2 3.5.5 2.6.7 3.6 1.3c1.7 1 3 2.4 4 4.2s1.5 3.7 1.5 5.7c0 3-.9 5.6-2.8 7.8-1.8 2.2-4.2 3.5-7.2 3.8zM662 98v15h1.7c1.5 0 2.8-.1 4-.3s2.3-.5 3.4-1 2-1.3 2.6-2.3c.6-1.1.9-2.4.9-4 0-4.9-3.8-7.4-11.3-7.4H662z" class="st0"/></svg>