<svg xmlns="http://www.w3.org/2000/svg" xmlns:xlink="http://www.w3.org/1999/xlink" width="1000" height="300" preserveAspectRatio="xMinYMid meet"><svg preserveAspectRatio="xMinYMid meet" version="1" viewBox="0 0 914.233 104.23"><path fill="#ffc20e" d="M864.791 79.873V12.331h19.982v15.738h27.456V45h-27.456v34.623c0 4.994 2.694 7.66 7.675 7.66h21.785v16.947h-25.101c-15.836 0-24.341-8.527-24.341-24.357m-3.34 24.357h-27.499l-32.066-36.381-22.1 16.695v19.686H760.03V0h19.756v63.658l45.545-35.589h29.217l-37.127 28.044"/><path fill="#ffc20e" fill-rule="evenodd" d="M664.032 80.484c0 4.989 2.692 7.644 7.675 7.644h69.715v16.103h-72.736c-15.817 0-24.334-8.527-24.334-24.351l-.016-27.48c0-15.834 8.532-24.324 24.35-24.324h49.256c15.839 0 24.351 8.49 24.351 24.317v22.57h-78.26v5.527m50.894-36.335h-43.22c-4.982 0-7.675 2.682-7.675 7.689v7.026h58.561l.009-7.026c0-4.997-2.678-7.689-7.675-7.689z" clip-rule="evenodd"/><path fill="#ffc20e" d="M608.122 52.679v51.551h-20.065V52.393c0-15.827 8.522-24.317 24.357-24.317h26.315v16.933h-22.936c-4.98-.001-7.671 2.682-7.671 7.67m-60.199-24.61h20.17v76.161h-20.17zm0-28.061h20.17v16.947h-20.17z"/><path fill="#ffc20e" fill-rule="evenodd" d="M425.591 79.873V52.386c0-15.837 8.521-24.317 24.341-24.317h58.324V0h19.703l-.013 104.23h-78.014c-15.82 0-24.341-8.527-24.341-24.357m82.657-34.859L453.255 45c-4.983 0-7.667 2.686-7.667 7.673v26.95c0 4.994 2.684 7.653 7.667 7.653h54.993V45.014z" clip-rule="evenodd"/><path fill="#00386c" d="M260.331 56.451c16.346-3.424 27.327-12.577 27.327-28.966 0-17.062-11.212-27.477-28.748-27.477h-60.494v17.483h56.257c7.709 0 12.318 3.226 12.318 9.142 0 5.352-2.957 10.435-10.531 11.987l-41.635 8.541c-17.313 3.562-25.173 13.941-25.173 30.265v26.805H286.1V86.21h-75.955v-8.785c0-6.188 2.908-11.048 9.663-12.47m152.518-8.504c16.346-3.424 27.329-12.577 27.329-28.966 0-17.062-11.228-27.477-28.756-27.477h-60.5v17.483h56.257c7.71 0 12.326 3.226 12.326 9.142 0 5.352-2.958 10.435-10.531 11.987l-41.636 8.541c-17.312 3.562-25.167 13.941-25.167 30.265v26.805h96.442V86.227h-75.956v-8.802c0-6.188 2.895-11.048 9.656-12.47"/><path fill="#00386c" fill-rule="evenodd" d="M89.729.008C73.895.008 65.38 8.527 65.38 24.347v10.699c0 7.636 2.477 10.767 6.173 13.853-6.173 2.742-9.311 8.643-9.311 15.929V79.88c0 15.823 8.514 24.351 24.35 24.351h62.416c15.828 0 24.349-8.527 24.349-24.351V64.828c0-7.286-3.146-13.187-9.317-15.929 3.697-3.086 6.172-6.217 6.172-13.853V24.347c0-15.82-8.52-24.339-24.356-24.339H89.729m60.607 24.834v9.629c0 4.983-2.685 7.666-7.673 7.666H92.917c-4.981 0-7.659-2.683-7.659-7.666v-9.629c0-4.975 2.685-7.678 7.659-7.678h49.747c4.987 0 7.672 2.697 7.672 7.678zm2.808 42.118v12.447c0 4.966-2.686 7.664-7.675 7.664H90.095c-4.966 0-7.645-2.686-7.645-7.664V66.96c0-4.982 2.678-7.669 7.666-7.669h55.36c4.982.001 7.668 2.687 7.668 7.669z" clip-rule="evenodd"/><path fill="#00386c" d="M.475 104.23h47.642V86.958H34.951V0H18.814L0 9.843v12.732h14.415v64.383H.475"/></svg></svg>